<svg width="32" height="32" viewBox="0 0 32 32" fill="none" xmlns="http://www.w3.org/2000/svg">
<path d="M18.5813 31.7939C18.45 31.8127 18.3125 31.8377 18.1813 31.8564C18.3125 31.8314 18.4438 31.8127 18.5813 31.7939Z" fill="black"/>
<path d="M18.9 31.7373C18.8375 31.7498 18.775 31.7623 18.7063 31.7686C18.775 31.7623 18.8375 31.7498 18.9 31.7373Z" fill="black"/>
<path d="M17.8187 31.8936C17.6625 31.9123 17.5062 31.9248 17.35 31.9373C17.5062 31.9311 17.6625 31.9123 17.8187 31.8936Z" fill="black"/>
<path d="M18.1313 31.8564C18.0563 31.8689 17.9813 31.8752 17.9062 31.8814C17.975 31.8752 18.0563 31.8689 18.1313 31.8564Z" fill="black"/>
<path d="M19.3375 31.6499C19.2812 31.6624 19.225 31.6749 19.1687 31.6874C19.225 31.6749 19.2812 31.6624 19.3375 31.6499Z" fill="black"/>
<path d="M20.4188 31.3813C20.375 31.3938 20.325 31.4063 20.2812 31.4188C20.325 31.4063 20.3688 31.3938 20.4188 31.3813Z" fill="black"/>
<path d="M20.0875 31.4688C20.0375 31.4813 19.9875 31.4938 19.9375 31.5063C19.9937 31.5 20.0375 31.4875 20.0875 31.4688Z" fill="black"/>
<path d="M19.6625 31.5811C19.6125 31.5936 19.5562 31.6061 19.5062 31.6186C19.5562 31.5998 19.6125 31.5873 19.6625 31.5811Z" fill="black"/>
<path d="M17.3438 31.9438C17.2625 31.9501 17.175 31.9563 17.0938 31.9626C17.175 31.9563 17.2625 31.9501 17.3438 31.9438Z" fill="black"/>
<path d="M32 16C32 7.1625 24.8375 0 16 0C7.1625 0 0 7.1625 0 16C0 24.8375 7.1625 32 16 32C16.0938 32 16.1875 32 16.2812 31.9937V19.5438H12.8438V15.5375H16.2812V12.5875C16.2812 9.16875 18.3688 7.30625 21.4188 7.30625C22.8813 7.30625 24.1375 7.4125 24.5 7.4625V11.0375H22.4C20.7437 11.0375 20.4188 11.825 20.4188 12.9812V15.5312H24.3875L23.8687 19.5375H20.4188V31.3813C27.1063 29.4625 32 23.3062 32 16Z" fill="black"/>
<path d="M17.0563 31.9624C16.8875 31.9749 16.725 31.9812 16.5563 31.9874C16.725 31.9812 16.8875 31.9749 17.0563 31.9624Z" fill="black"/>
<path d="M16.55 31.9873C16.4625 31.9873 16.375 31.9936 16.2875 31.9936C16.3687 31.9936 16.4562 31.9936 16.55 31.9873Z" fill="black"/>
</svg>
